<svg width="16" height="14" viewBox="0 0 16 14" fill="black" xmlns="http://www.w3.org/2000/svg">
<path d="M6.58625 12.7885C6.51375 12.7179 6.20375 12.4511 5.94875 12.2028C4.345 10.7464 1.72 6.947 0.91875 4.9585C0.79 4.6565 0.517502 3.89296 0.500002 3.48502C0.500002 3.09412 0.590002 2.7215 0.772502 2.36592C1.0275 1.92267 1.42875 1.5671 1.9025 1.37226C2.23125 1.24684 3.215 1.052 3.2325 1.052C4.30875 0.857162 6.0575 0.75 7.99 0.75C9.83125 0.75 11.5087 0.857162 12.6012 1.01669C12.6187 1.03495 13.8413 1.22979 14.26 1.44289C15.025 1.83377 15.5 2.5973 15.5 3.41439L15.5 3.48502C15.4812 4.01717 15.0062 5.13625 14.9887 5.13625C14.1862 7.01763 11.69 10.7293 10.0312 12.221C10.0312 12.221 9.605 12.6411 9.33875 12.8238C8.95625 13.1088 8.4825 13.25 8.00875 13.25C7.48 13.25 6.9875 13.0905 6.58625 12.7885Z" />
</svg>
