<svg width="23" height="22" viewBox="0 0 23 22" fill="none" xmlns="http://www.w3.org/2000/svg">
<path d="M10.3004 20.5999H4.30038C2.97489 20.5999 1.90038 19.5254 1.90039 18.1999L1.90048 3.79998C1.90049 2.4745 2.97501 1.39999 4.30048 1.39999H15.1007C16.4262 1.39999 17.5007 2.47451 17.5007 3.79999V8.59999M16.9004 16.349V16.2858M6.10076 6.19999H13.3008M6.10076 9.79999H13.3008M6.10076 13.4H9.70076M21.1004 16.4C21.1004 16.4 20.1042 19.3397 16.9004 19.2883C13.6965 19.237 12.7004 16.4 12.7004 16.4C12.7004 16.4 13.6562 13.409 16.9004 13.409C20.1446 13.409 21.1004 16.4 21.1004 16.4Z" stroke="black" stroke-width="2" stroke-linecap="round" stroke-linejoin="round"/>
</svg>
