<svg width="16" height="16" viewBox="0 0 16 16" fill="none" xmlns="http://www.w3.org/2000/svg">
<path d="M9.5999 12L9.5999 13.6C9.5999 14.0418 9.24173 14.4 8.7999 14.4L3.59991 14.4C2.49534 14.4 1.59991 13.5045 1.59991 12.4L1.59991 7.19998C1.59991 6.75815 1.95808 6.39998 2.39991 6.39998L3.99991 6.39998M14.3999 7.99998L14.3999 3.19998C14.3999 2.31632 13.6836 1.59998 12.7999 1.59998L7.9999 1.59998C7.11625 1.59998 6.3999 2.31632 6.3999 3.19998L6.3999 7.99998C6.3999 8.88363 7.11625 9.59998 7.9999 9.59998L12.7999 9.59998C13.6836 9.59998 14.3999 8.88363 14.3999 7.99998Z" stroke="#808080" stroke-linecap="round"/>
</svg>
