<svg width="78" height="31" viewBox="0 0 78 31" fill="none" xmlns="http://www.w3.org/2000/svg">
<path d="M0.715909 6.89702V4.90909H11.1605V6.89702H7.11435V18H4.76207V6.89702H0.715909ZM15.3857 12.2472V18H13.0717V4.90909H15.3345V9.85014H15.4496C15.6797 9.29616 16.0355 8.85937 16.517 8.53977C17.0028 8.21591 17.6207 8.05398 18.3707 8.05398C19.0526 8.05398 19.647 8.19673 20.1541 8.48224C20.6612 8.76776 21.0533 9.18537 21.3303 9.73509C21.6115 10.2848 21.7521 10.956 21.7521 11.7486V18H19.4382V12.1065C19.4382 11.446 19.2678 10.9325 18.9268 10.5661C18.5902 10.1953 18.1172 10.0099 17.5078 10.0099C17.0987 10.0099 16.7322 10.0994 16.4084 10.2784C16.0888 10.4531 15.8374 10.7067 15.6541 11.0391C15.4751 11.3714 15.3857 11.7741 15.3857 12.2472ZM28.4574 18.1918C27.473 18.1918 26.6229 17.9872 25.907 17.5781C25.1953 17.1648 24.6477 16.581 24.2642 15.8267C23.8807 15.0682 23.6889 14.1754 23.6889 13.1484C23.6889 12.1385 23.8807 11.2521 24.2642 10.4893C24.652 9.7223 25.1932 9.12571 25.8878 8.69957C26.5824 8.26918 27.3984 8.05398 28.3359 8.05398C28.9411 8.05398 29.5121 8.15199 30.049 8.34801C30.5902 8.53977 31.0675 8.83807 31.4808 9.2429C31.8984 9.64773 32.2266 10.1634 32.4652 10.7898C32.7038 11.4119 32.8232 12.1534 32.8232 13.0142V13.7237H24.7756V12.1641H30.6051C30.6009 11.7209 30.505 11.3267 30.3175 10.9815C30.13 10.6321 29.8679 10.3572 29.5312 10.157C29.1989 9.95668 28.8111 9.85653 28.3679 9.85653C27.8949 9.85653 27.4794 9.97159 27.1214 10.2017C26.7635 10.4276 26.4844 10.7259 26.2841 11.0966C26.0881 11.4631 25.9879 11.8658 25.9837 12.3047V13.6662C25.9837 14.2372 26.0881 14.7273 26.2969 15.1364C26.5057 15.5412 26.7976 15.8523 27.1726 16.0696C27.5476 16.2827 27.9865 16.3892 28.4893 16.3892C28.826 16.3892 29.1307 16.3423 29.4034 16.2486C29.6761 16.1506 29.9126 16.0078 30.1129 15.8203C30.3132 15.6328 30.4645 15.4006 30.5668 15.1236L32.7273 15.3665C32.5909 15.9375 32.331 16.4361 31.9474 16.8622C31.5682 17.2841 31.0824 17.6122 30.4901 17.8466C29.8977 18.0767 29.2202 18.1918 28.4574 18.1918Z" fill="#313131"/>
<path d="M46.4622 8.50781C46.4025 7.94957 46.1511 7.51491 45.7079 7.20384C45.269 6.89276 44.698 6.73722 43.9949 6.73722C43.5005 6.73722 43.0765 6.81179 42.7228 6.96094C42.3691 7.11008 42.0985 7.3125 41.911 7.56818C41.7235 7.82386 41.6277 8.11577 41.6234 8.44389C41.6234 8.71662 41.6852 8.95312 41.8088 9.15341C41.9366 9.35369 42.1092 9.52415 42.3265 9.66477C42.5439 9.80114 42.7846 9.91619 43.0488 10.0099C43.313 10.1037 43.5794 10.1825 43.8478 10.2464L45.0751 10.5533C45.5694 10.6683 46.0446 10.8239 46.5005 11.0199C46.9608 11.2159 47.372 11.4631 47.7342 11.7614C48.1007 12.0597 48.3904 12.4197 48.6035 12.8416C48.8166 13.2635 48.9231 13.7578 48.9231 14.3246C48.9231 15.0916 48.7271 15.767 48.3351 16.3509C47.943 16.9304 47.3762 17.3842 46.6348 17.7124C45.8975 18.0362 45.0048 18.1982 43.9565 18.1982C42.938 18.1982 42.0538 18.0405 41.3038 17.7251C40.5581 17.4098 39.9743 16.9496 39.5524 16.3445C39.1348 15.7393 38.9089 15.0021 38.8748 14.1328H41.2079C41.242 14.5888 41.3826 14.968 41.6298 15.2706C41.877 15.5732 42.1987 15.799 42.595 15.9482C42.9956 16.0973 43.443 16.1719 43.9373 16.1719C44.4529 16.1719 44.9047 16.0952 45.2924 15.9418C45.6845 15.7841 45.9913 15.5668 46.2129 15.2898C46.4345 15.0085 46.5474 14.6804 46.5517 14.3054C46.5474 13.9645 46.4473 13.6832 46.2512 13.4616C46.0552 13.2358 45.7804 13.0483 45.4267 12.8991C45.0772 12.7457 44.6681 12.6094 44.1994 12.4901L42.7101 12.1065C41.6319 11.8295 40.7797 11.4098 40.1532 10.8473C39.5311 10.2805 39.22 9.52841 39.22 8.59091C39.22 7.8196 39.4288 7.14418 39.8464 6.56463C40.2683 5.98509 40.8414 5.53551 41.5659 5.21591C42.2903 4.89204 43.1106 4.73011 44.0268 4.73011C44.9558 4.73011 45.7697 4.89204 46.4686 5.21591C47.1717 5.53551 47.7235 5.98082 48.1241 6.55185C48.5247 7.11861 48.7314 7.7706 48.7441 8.50781H46.4622ZM53.7603 18.1982C53.1381 18.1982 52.5778 18.0874 52.0792 17.8658C51.5849 17.6399 51.1928 17.3075 50.9031 16.8686C50.6175 16.4297 50.4748 15.8885 50.4748 15.245C50.4748 14.6911 50.5771 14.233 50.7816 13.8707C50.9862 13.5085 51.2653 13.2188 51.619 13.0014C51.9727 12.7841 52.3711 12.62 52.8143 12.5092C53.2617 12.3942 53.7241 12.3111 54.2013 12.2599C54.7766 12.2003 55.2433 12.147 55.6012 12.1001C55.9592 12.049 56.2191 11.9723 56.381 11.87C56.5472 11.7635 56.6303 11.5994 56.6303 11.3778V11.3395C56.6303 10.858 56.4876 10.4851 56.2021 10.2209C55.9165 9.95668 55.5053 9.82457 54.9684 9.82457C54.4016 9.82457 53.9521 9.94815 53.6197 10.1953C53.2915 10.4425 53.07 10.7344 52.9549 11.071L50.7944 10.7642C50.9648 10.1676 51.2461 9.66903 51.6381 9.26847C52.0302 8.86364 52.5096 8.56108 53.0763 8.3608C53.6431 8.15625 54.2695 8.05398 54.9556 8.05398C55.4286 8.05398 55.8995 8.10938 56.3683 8.22017C56.837 8.33097 57.2653 8.5142 57.6531 8.76989C58.0408 9.02131 58.3519 9.36435 58.5863 9.79901C58.8249 10.2337 58.9442 10.777 58.9442 11.429V18H56.7198V16.6513H56.6431C56.5025 16.924 56.3043 17.1797 56.0487 17.4183C55.7972 17.6527 55.4798 17.8423 55.0962 17.9872C54.717 18.1278 54.2717 18.1982 53.7603 18.1982ZM54.3612 16.4979C54.8256 16.4979 55.2283 16.4062 55.5692 16.223C55.9102 16.0355 56.1722 15.7884 56.3555 15.4815C56.543 15.1747 56.6367 14.8402 56.6367 14.478V13.321C56.5643 13.3807 56.4407 13.4361 56.266 13.4872C56.0955 13.5384 55.9038 13.5831 55.6907 13.6214C55.4776 13.6598 55.2667 13.6939 55.0579 13.7237C54.8491 13.7536 54.668 13.7791 54.5146 13.8004C54.1694 13.8473 53.8604 13.924 53.5877 14.0305C53.315 14.1371 53.0998 14.2862 52.9421 14.478C52.7844 14.6655 52.7056 14.9084 52.7056 15.2067C52.7056 15.6328 52.8612 15.9545 53.1722 16.1719C53.4833 16.3892 53.8796 16.4979 54.3612 16.4979ZM66.244 8.18182V9.97159H60.44V8.18182H66.244ZM61.891 18V7.25497C61.891 6.59446 62.0273 6.04474 62.3001 5.60582C62.5771 5.1669 62.9478 4.83878 63.4123 4.62145C63.8768 4.40412 64.3924 4.29545 64.9592 4.29545C65.3597 4.29545 65.7156 4.32741 66.0266 4.39134C66.3377 4.45526 66.5678 4.51278 66.717 4.56392L66.2567 6.35369C66.1587 6.32386 66.0352 6.29403 65.886 6.2642C65.7369 6.23011 65.5707 6.21307 65.3874 6.21307C64.957 6.21307 64.6523 6.31747 64.4734 6.52628C64.2987 6.73082 64.2113 7.02486 64.2113 7.40838V18H61.891ZM72.0336 18.1918C71.0492 18.1918 70.199 17.9872 69.4831 17.5781C68.7715 17.1648 68.2239 16.581 67.8404 15.8267C67.4569 15.0682 67.2651 14.1754 67.2651 13.1484C67.2651 12.1385 67.4569 11.2521 67.8404 10.4893C68.2282 9.7223 68.7694 9.12571 69.464 8.69957C70.1586 8.26918 70.9746 8.05398 71.9121 8.05398C72.5172 8.05398 73.0882 8.15199 73.6252 8.34801C74.1664 8.53977 74.6436 8.83807 75.057 9.2429C75.4746 9.64773 75.8027 10.1634 76.0414 10.7898C76.28 11.4119 76.3993 12.1534 76.3993 13.0142V13.7237H68.3517V12.1641H74.1813C74.177 11.7209 74.0811 11.3267 73.8936 10.9815C73.7061 10.6321 73.4441 10.3572 73.1074 10.157C72.775 9.95668 72.3873 9.85653 71.9441 9.85653C71.4711 9.85653 71.0556 9.97159 70.6976 10.2017C70.3397 10.4276 70.0605 10.7259 69.8603 11.0966C69.6642 11.4631 69.5641 11.8658 69.5598 12.3047V13.6662C69.5598 14.2372 69.6642 14.7273 69.873 15.1364C70.0819 15.5412 70.3738 15.8523 70.7488 16.0696C71.1238 16.2827 71.5627 16.3892 72.0655 16.3892C72.4022 16.3892 72.7069 16.3423 72.9796 16.2486C73.2523 16.1506 73.4888 16.0078 73.6891 15.8203C73.8894 15.6328 74.0407 15.4006 74.1429 15.1236L76.3034 15.3665C76.1671 15.9375 75.9071 16.4361 75.5236 16.8622C75.1444 17.2841 74.6586 17.6122 74.0662 17.8466C73.4739 18.0767 72.7963 18.1918 72.0336 18.1918Z" fill="#0077FF"/>
<path d="M5.78409 26.9929V24.0909H6.53835V29H5.78409V28.169H5.73295C5.6179 28.4183 5.43892 28.6303 5.19602 28.805C4.95313 28.9776 4.64631 29.0639 4.27557 29.0639C3.96875 29.0639 3.69602 28.9968 3.45739 28.8626C3.21875 28.7262 3.03125 28.5217 2.89489 28.2489C2.75852 27.9741 2.69034 27.6278 2.69034 27.2102V24.0909H3.4446V27.1591C3.4446 27.517 3.54474 27.8026 3.74503 28.0156C3.94744 28.2287 4.20526 28.3352 4.51847 28.3352C4.70597 28.3352 4.89666 28.2873 5.09055 28.1914C5.28658 28.0955 5.45064 27.9485 5.58274 27.7504C5.71697 27.5522 5.78409 27.2997 5.78409 26.9929ZM8.67409 26.0469V29H7.91983V24.0909H8.64853V24.858H8.71245C8.8275 24.6087 9.00222 24.4084 9.23659 24.2571C9.47097 24.1037 9.77353 24.027 10.1443 24.027C10.4767 24.027 10.7675 24.0952 11.0168 24.2315C11.2661 24.3658 11.46 24.5703 11.5985 24.8452C11.7369 25.1179 11.8062 25.4631 11.8062 25.8807V29H11.0519V25.9318C11.0519 25.5462 10.9518 25.2457 10.7515 25.0305C10.5512 24.8132 10.2764 24.7045 9.92694 24.7045C9.68617 24.7045 9.47097 24.7567 9.28134 24.8612C9.09384 24.9656 8.94576 25.1179 8.83709 25.3182C8.72843 25.5185 8.67409 25.7614 8.67409 26.0469ZM15.3194 24.0909V24.7301H12.7754V24.0909H15.3194ZM13.5169 22.9148H14.2711V27.5938C14.2711 27.8068 14.302 27.9666 14.3638 28.0732C14.4277 28.1776 14.5087 28.2479 14.6067 28.2841C14.7069 28.3182 14.8123 28.3352 14.9231 28.3352C15.0062 28.3352 15.0744 28.331 15.1277 28.3224C15.1809 28.3118 15.2235 28.3033 15.2555 28.2969L15.4089 28.9744C15.3578 28.9936 15.2864 29.0128 15.1948 29.032C15.1032 29.0533 14.987 29.0639 14.8464 29.0639C14.6333 29.0639 14.4245 29.0181 14.22 28.9265C14.0176 28.8349 13.8493 28.6953 13.715 28.5078C13.5829 28.3203 13.5169 28.0838 13.5169 27.7983V22.9148ZM16.454 29V24.0909H17.2083V29H16.454ZM16.8375 23.2727C16.6905 23.2727 16.5637 23.2227 16.4572 23.1225C16.3528 23.0224 16.3006 22.902 16.3006 22.7614C16.3006 22.6207 16.3528 22.5004 16.4572 22.4002C16.5637 22.3001 16.6905 22.25 16.8375 22.25C16.9846 22.25 17.1103 22.3001 17.2147 22.4002C17.3212 22.5004 17.3745 22.6207 17.3745 22.7614C17.3745 22.902 17.3212 23.0224 17.2147 23.1225C17.1103 23.2227 16.9846 23.2727 16.8375 23.2727ZM20.7247 24.0909V24.7301H18.1807V24.0909H20.7247ZM18.9221 22.9148H19.6764V27.5938C19.6764 27.8068 19.7073 27.9666 19.7691 28.0732C19.833 28.1776 19.914 28.2479 20.012 28.2841C20.1121 28.3182 20.2176 28.3352 20.3284 28.3352C20.4115 28.3352 20.4797 28.331 20.5329 28.3224C20.5862 28.3118 20.6288 28.3033 20.6608 28.2969L20.8142 28.9744C20.7631 28.9936 20.6917 29.0128 20.6001 29.032C20.5084 29.0533 20.3923 29.0639 20.2517 29.0639C20.0386 29.0639 19.8298 29.0181 19.6253 28.9265C19.4229 28.8349 19.2545 28.6953 19.1203 28.5078C18.9882 28.3203 18.9221 28.0838 18.9221 27.7983V22.9148ZM22.719 22.4545V29H21.9648V22.4545H22.719ZM26.1587 29.1023C25.6857 29.1023 25.2777 28.9979 24.9347 28.7891C24.5938 28.5781 24.3306 28.2841 24.1452 27.907C23.962 27.5277 23.8704 27.0866 23.8704 26.5838C23.8704 26.081 23.962 25.6378 24.1452 25.2543C24.3306 24.8686 24.5884 24.5682 24.9187 24.353C25.2511 24.1357 25.6388 24.027 26.082 24.027C26.3377 24.027 26.5902 24.0696 26.8395 24.1548C27.0888 24.2401 27.3157 24.3786 27.5202 24.5703C27.7248 24.7599 27.8878 25.0114 28.0092 25.3246C28.1307 25.6378 28.1914 26.0234 28.1914 26.4815V26.8011H24.4073V26.1491H27.4244C27.4244 25.8722 27.369 25.625 27.2582 25.4077C27.1495 25.1903 26.994 25.0188 26.7915 24.8931C26.5913 24.7674 26.3548 24.7045 26.082 24.7045C25.7816 24.7045 25.5217 24.7791 25.3022 24.9283C25.0849 25.0753 24.9176 25.267 24.8004 25.5036C24.6832 25.7401 24.6246 25.9936 24.6246 26.2642V26.6989C24.6246 27.0696 24.6886 27.3839 24.8164 27.6417C24.9464 27.8974 25.1264 28.0923 25.3565 28.2266C25.5866 28.3587 25.854 28.4247 26.1587 28.4247C26.3569 28.4247 26.5359 28.397 26.6957 28.3416C26.8576 28.2841 26.9972 28.1989 27.1143 28.0859C27.2315 27.9709 27.3221 27.8281 27.386 27.6577L28.1147 27.8622C28.038 28.1094 27.9091 28.3267 27.728 28.5142C27.5469 28.6996 27.3232 28.8445 27.0568 28.9489C26.7905 29.0511 26.4911 29.1023 26.1587 29.1023ZM31.1925 29.1023C30.7834 29.1023 30.4222 28.9989 30.109 28.7923C29.7958 28.5835 29.5508 28.2894 29.3739 27.9102C29.1971 27.5288 29.1087 27.0781 29.1087 26.5582C29.1087 26.0426 29.1971 25.5952 29.3739 25.2159C29.5508 24.8366 29.7969 24.5437 30.1122 24.337C30.4276 24.1303 30.7919 24.027 31.2053 24.027C31.5249 24.027 31.7773 24.0803 31.9627 24.1868C32.1502 24.2912 32.293 24.4105 32.391 24.5447C32.4911 24.6768 32.5689 24.7855 32.6243 24.8707H32.6882V22.4545H33.4425V29H32.7138V28.2457H32.6243C32.5689 28.3352 32.4901 28.4482 32.3878 28.5845C32.2855 28.7187 32.1396 28.8391 31.9499 28.9457C31.7603 29.0501 31.5078 29.1023 31.1925 29.1023ZM31.2947 28.4247C31.5973 28.4247 31.853 28.3459 32.0618 28.1882C32.2706 28.0284 32.4293 27.8079 32.538 27.5266C32.6467 27.2433 32.701 26.9162 32.701 26.5455C32.701 26.179 32.6477 25.8583 32.5412 25.5835C32.4347 25.3065 32.277 25.0913 32.0682 24.9379C31.8594 24.7823 31.6016 24.7045 31.2947 24.7045C30.9751 24.7045 30.7088 24.7866 30.4957 24.9506C30.2848 25.1126 30.1261 25.3331 30.0195 25.6122C29.9151 25.8892 29.8629 26.2003 29.8629 26.5455C29.8629 26.8949 29.9162 27.2124 30.0227 27.4979C30.1314 27.7812 30.2912 28.0071 30.5021 28.1754C30.7152 28.3416 30.9794 28.4247 31.2947 28.4247ZM38.624 29V29.7031H34.5331V29H38.624ZM41.4405 24.0909V24.7301H38.8965V24.0909H41.4405ZM39.638 22.9148H40.3922V27.5938C40.3922 27.8068 40.4231 27.9666 40.4849 28.0732C40.5488 28.1776 40.6298 28.2479 40.7278 28.2841C40.8279 28.3182 40.9334 28.3352 41.0442 28.3352C41.1273 28.3352 41.1955 28.331 41.2488 28.3224C41.302 28.3118 41.3446 28.3033 41.3766 28.2969L41.53 28.9744C41.4789 28.9936 41.4075 29.0128 41.3159 29.032C41.2243 29.0533 41.1081 29.0639 40.9675 29.0639C40.7544 29.0639 40.5456 29.0181 40.3411 28.9265C40.1387 28.8349 39.9703 28.6953 39.8361 28.5078C39.704 28.3203 39.638 28.0838 39.638 27.7983V22.9148ZM44.5806 29.1023C44.1076 29.1023 43.6996 28.9979 43.3565 28.7891C43.0156 28.5781 42.7525 28.2841 42.5671 27.907C42.3839 27.5277 42.2923 27.0866 42.2923 26.5838C42.2923 26.081 42.3839 25.6378 42.5671 25.2543C42.7525 24.8686 43.0103 24.5682 43.3406 24.353C43.6729 24.1357 44.0607 24.027 44.5039 24.027C44.7596 24.027 45.0121 24.0696 45.2614 24.1548C45.5107 24.2401 45.7376 24.3786 45.9421 24.5703C46.1467 24.7599 46.3097 25.0114 46.4311 25.3246C46.5526 25.6378 46.6133 26.0234 46.6133 26.4815V26.8011H42.8292V26.1491H45.8462C45.8462 25.8722 45.7908 25.625 45.68 25.4077C45.5714 25.1903 45.4158 25.0188 45.2134 24.8931C45.0131 24.7674 44.7766 24.7045 44.5039 24.7045C44.2035 24.7045 43.9435 24.7791 43.7241 24.9283C43.5067 25.0753 43.3395 25.267 43.2223 25.5036C43.1051 25.7401 43.0465 25.9936 43.0465 26.2642V26.6989C43.0465 27.0696 43.1104 27.3839 43.2383 27.6417C43.3683 27.8974 43.5483 28.0923 43.7784 28.2266C44.0085 28.3587 44.2759 28.4247 44.5806 28.4247C44.7788 28.4247 44.9577 28.397 45.1175 28.3416C45.2795 28.2841 45.419 28.1989 45.5362 28.0859C45.6534 27.9709 45.744 27.8281 45.8079 27.6577L46.5366 27.8622C46.4599 28.1094 46.331 28.3267 46.1499 28.5142C45.9688 28.6996 45.745 28.8445 45.4787 28.9489C45.2124 29.0511 44.913 29.1023 44.5806 29.1023ZM49.2053 29.1151C48.8942 29.1151 48.6119 29.0565 48.3583 28.9393C48.1048 28.82 47.9034 28.6484 47.7543 28.4247C47.6051 28.1989 47.5305 27.9261 47.5305 27.6065C47.5305 27.3253 47.5859 27.0973 47.6967 26.9226C47.8075 26.7457 47.9556 26.6072 48.141 26.5071C48.3263 26.407 48.5309 26.3324 48.7546 26.2834C48.9805 26.2322 49.2074 26.1918 49.4354 26.1619C49.7337 26.1236 49.9755 26.0948 50.1609 26.0756C50.3484 26.0543 50.4847 26.0192 50.57 25.9702C50.6573 25.9212 50.701 25.8359 50.701 25.7145V25.6889C50.701 25.3736 50.6147 25.1286 50.4421 24.9538C50.2717 24.7791 50.0128 24.6918 49.6655 24.6918C49.3054 24.6918 49.0231 24.7706 48.8185 24.9283C48.614 25.0859 48.4702 25.2543 48.3871 25.4332L47.6712 25.1776C47.799 24.8793 47.9695 24.647 48.1825 24.4808C48.3977 24.3125 48.6321 24.1953 48.8857 24.1293C49.1413 24.0611 49.3928 24.027 49.6399 24.027C49.7976 24.027 49.9787 24.0462 50.1832 24.0845C50.3899 24.1207 50.5891 24.1964 50.7809 24.3114C50.9748 24.4265 51.1357 24.6001 51.2635 24.8324C51.3913 25.0646 51.4553 25.3757 51.4553 25.7656V29H50.701V28.3352H50.6626C50.6115 28.4418 50.5263 28.5558 50.407 28.6772C50.2876 28.7987 50.1289 28.902 49.9308 28.9872C49.7326 29.0724 49.4908 29.1151 49.2053 29.1151ZM49.3203 28.4375C49.6186 28.4375 49.87 28.3789 50.0746 28.2617C50.2813 28.1445 50.4368 27.9933 50.5412 27.8079C50.6477 27.6225 50.701 27.4276 50.701 27.223V26.5327C50.669 26.571 50.5987 26.6062 50.4901 26.6381C50.3835 26.668 50.2599 26.6946 50.1193 26.718C49.9808 26.7393 49.8455 26.7585 49.7134 26.7756C49.5835 26.7905 49.478 26.8033 49.397 26.8139C49.201 26.8395 49.0178 26.881 48.8473 26.9386C48.679 26.994 48.5426 27.0781 48.4382 27.1911C48.3359 27.3018 48.2848 27.4531 48.2848 27.6449C48.2848 27.907 48.3817 28.1051 48.5756 28.2393C48.7717 28.3714 49.0199 28.4375 49.3203 28.4375ZM52.8319 29V24.0909H53.5606V24.858H53.6246C53.7268 24.5959 53.892 24.3924 54.1199 24.2475C54.3479 24.1005 54.6217 24.027 54.9413 24.027C55.2652 24.027 55.5347 24.1005 55.7499 24.2475C55.9672 24.3924 56.1366 24.5959 56.2581 24.858H56.3092C56.4349 24.6044 56.6235 24.4031 56.8749 24.2539C57.1263 24.1026 57.4278 24.027 57.7794 24.027C58.2183 24.027 58.5773 24.1644 58.8564 24.4393C59.1356 24.712 59.2751 25.1371 59.2751 25.7145V29H58.5209V25.7145C58.5209 25.3523 58.4218 25.0934 58.2236 24.9379C58.0255 24.7823 57.7922 24.7045 57.5237 24.7045C57.1785 24.7045 56.9111 24.8089 56.7215 25.0178C56.5319 25.2244 56.4371 25.4865 56.4371 25.804V29H55.67V25.6378C55.67 25.3587 55.5795 25.1339 55.3983 24.9634C55.2172 24.7908 54.9839 24.7045 54.6984 24.7045C54.5024 24.7045 54.3192 24.7567 54.1487 24.8612C53.9804 24.9656 53.844 25.1104 53.7396 25.2958C53.6373 25.479 53.5862 25.6911 53.5862 25.9318V29H52.8319Z" fill="#888888"/>
</svg>
