<svg width="111" height="83" viewBox="0 0 111 83" fill="none" xmlns="http://www.w3.org/2000/svg">
<circle cx="41" cy="44" r="38" fill="#DBDBDB"/>
<path d="M51.5 1L53.7246 4.27544L57 6.5L53.7246 8.72456L51.5 12L49.2754 8.72456L46 6.5L49.2754 4.27544L51.5 1Z" fill="#C8C8C8"/>
<path d="M51.5 1L53.7246 4.27544L57 6.5L53.7246 8.72456L51.5 12L49.2754 8.72456L46 6.5L49.2754 4.27544L51.5 1Z" fill="black" fill-opacity="0.2"/>
<path d="M51.5 1L53.7246 4.27544L57 6.5L53.7246 8.72456L51.5 12L49.2754 8.72456L46 6.5L49.2754 4.27544L51.5 1Z" stroke="#C8C8C8" stroke-width="2" stroke-linejoin="round"/>
<path d="M51.5 1L53.7246 4.27544L57 6.5L53.7246 8.72456L51.5 12L49.2754 8.72456L46 6.5L49.2754 4.27544L51.5 1Z" stroke="black" stroke-opacity="0.2" stroke-width="2" stroke-linejoin="round"/>
<circle cx="19" cy="76" r="5" stroke="#C8C8C8" stroke-width="2"/>
<circle cx="19" cy="76" r="5" stroke="black" stroke-opacity="0.2" stroke-width="2"/>
<path d="M33.6838 44.9487C34.2077 45.1233 34.774 44.8402 34.9487 44.3162C35.1233 43.7923 34.8402 43.226 34.3162 43.0513L33.6838 44.9487ZM25 41H24C24 41.4304 24.2754 41.8126 24.6838 41.9487L25 41ZM26 28.4557C26 27.9034 25.5523 27.4557 25 27.4557C24.4477 27.4557 24 27.9034 24 28.4557H26ZM34.3162 43.0513L25.3162 40.0513L24.6838 41.9487L33.6838 44.9487L34.3162 43.0513ZM26 41V28.4557H24V41H26ZM48 38C48 50.7025 37.7025 61 25 61V63C38.8071 63 50 51.8071 50 38H48ZM25 61C12.2975 61 2 50.7025 2 38H0C0 51.8071 11.1929 63 25 63V61ZM2 38C2 25.2975 12.2975 15 25 15V13C11.1929 13 0 24.1929 0 38H2ZM25 15C37.7025 15 48 25.2975 48 38H50C50 24.1929 38.8071 13 25 13V15Z" fill="#C8C8C8"/>
<path d="M33.6838 44.9487C34.2077 45.1233 34.774 44.8402 34.9487 44.3162C35.1233 43.7923 34.8402 43.226 34.3162 43.0513L33.6838 44.9487ZM25 41H24C24 41.4304 24.2754 41.8126 24.6838 41.9487L25 41ZM26 28.4557C26 27.9034 25.5523 27.4557 25 27.4557C24.4477 27.4557 24 27.9034 24 28.4557H26ZM34.3162 43.0513L25.3162 40.0513L24.6838 41.9487L33.6838 44.9487L34.3162 43.0513ZM26 41V28.4557H24V41H26ZM48 38C48 50.7025 37.7025 61 25 61V63C38.8071 63 50 51.8071 50 38H48ZM25 61C12.2975 61 2 50.7025 2 38H0C0 51.8071 11.1929 63 25 63V61ZM2 38C2 25.2975 12.2975 15 25 15V13C11.1929 13 0 24.1929 0 38H2ZM25 15C37.7025 15 48 25.2975 48 38H50C50 24.1929 38.8071 13 25 13V15Z" fill="black" fill-opacity="0.2"/>
<path d="M74.4961 28.5217C74.8638 28.9338 74.8279 29.5659 74.4158 29.9336C74.0037 30.3013 73.3716 30.2654 73.0039 29.8533L74.4961 28.5217ZM62.875 17L62.1289 16.3342C62.3186 16.1216 62.59 16 62.875 16C63.16 16 63.4314 16.1216 63.6211 16.3342L62.875 17ZM52.7461 29.8533C52.3784 30.2654 51.7463 30.3013 51.3342 29.9336C50.9221 29.5659 50.8862 28.9338 51.2539 28.5217L52.7461 29.8533ZM63.875 82C63.875 82.5523 63.4273 83 62.875 83C62.3227 83 61.875 82.5523 61.875 82H63.875ZM87.5039 70.4783C87.1362 70.0662 87.1721 69.4341 87.5842 69.0664C87.9963 68.6987 88.6284 68.7346 88.9961 69.1467L87.5039 70.4783ZM99.125 82L99.8711 82.6658C99.6814 82.8784 99.41 83 99.125 83C98.84 83 98.5686 82.8784 98.3789 82.6658L99.125 82ZM109.254 69.1467C109.622 68.7346 110.254 68.6987 110.666 69.0664C111.078 69.4341 111.114 70.0662 110.746 70.4783L109.254 69.1467ZM98.125 17C98.125 16.4477 98.5727 16 99.125 16C99.6773 16 100.125 16.4477 100.125 17L98.125 17ZM99.125 49.5H98.125H99.125ZM73.0039 29.8533L62.1289 17.6658L63.6211 16.3342L74.4961 28.5217L73.0039 29.8533ZM63.6211 17.6658L52.7461 29.8533L51.2539 28.5217L62.1289 16.3342L63.6211 17.6658ZM63.875 17L63.875 82H61.875L61.875 17L63.875 17ZM88.9961 69.1467L99.8711 81.3342L98.3789 82.6658L87.5039 70.4783L88.9961 69.1467ZM98.3789 81.3342L109.254 69.1467L110.746 70.4783L99.8711 82.6658L98.3789 81.3342ZM98.125 82L98.125 49.5H100.125L100.125 82H98.125ZM98.125 49.5L98.125 17L100.125 17L100.125 49.5H98.125Z" fill="#0077FF"/>
</svg>
