<svg width="24" height="24" viewBox="0 0 24 24" fill="none" xmlns="http://www.w3.org/2000/svg">
<path d="M11.997 2.51398C7.56196 2.51398 5.63596 6.52898 5.63596 9.18398C5.63596 11.168 5.92396 10.584 4.82596 13.004C3.48496 16.453 8.87696 17.862 11.997 17.862C15.117 17.862 20.508 16.452 19.168 13.004C18.068 10.584 18.358 11.168 18.358 9.18398C18.358 6.52898 16.43 2.51398 11.997 2.51398Z" stroke="black" stroke-width="1.5" stroke-miterlimit="10" stroke-linecap="round" stroke-linejoin="round"/>
<path d="M14.306 20.512C14.0253 20.8529 13.6726 21.1276 13.2733 21.3161C12.8739 21.5046 12.4377 21.6024 11.996 21.6024C11.5544 21.6024 11.1182 21.5046 10.7188 21.3161C10.3194 21.1276 9.96673 20.8529 9.68604 20.512" stroke="black" stroke-width="1.5" stroke-miterlimit="10" stroke-linecap="round" stroke-linejoin="round"/>
</svg>
