<svg width="24" height="22" viewBox="0 0 24 22" fill="none" xmlns="http://www.w3.org/2000/svg">
<path d="M8.75602 3.25546L10.0271 1.42882C10.214 1.16017 10.5206 1 10.8479 1H12.653C12.9791 1 13.2847 1.15898 13.4719 1.426L14.7297 3.22032M8.75602 3.25546C8.40917 3.75031 7.83262 3.99279 7.22068 3.94956M8.75602 3.25546C8.40748 3.74912 7.83262 3.9948 7.22068 3.94956M7.22068 3.94956L4.97158 3.80836C4.65073 3.78821 4.33977 3.92355 4.13585 4.17208L2.99534 5.56208C2.77914 5.82557 2.71204 6.18104 2.8173 6.50522L3.47315 8.52504M3.47315 8.52504C3.56207 8.81338 3.57345 9.12227 3.50981 9.41401M3.47315 8.52504C3.56334 8.81286 3.5743 9.12114 3.50939 9.41699M3.50981 9.41401C3.44533 9.70229 3.3071 9.9745 3.10185 10.1949M3.50981 9.41401L3.50939 9.41699M3.10185 10.1949L1.61575 11.7933C1.38735 12.0389 1.29732 12.3827 1.376 12.7088L1.77856 14.377C1.85699 14.702 2.09263 14.9663 2.40653 15.0813L4.44838 15.8297C4.73328 15.9399 4.97941 16.1191 5.16569 16.3449M3.10185 10.1949C3.30836 9.9763 3.44533 9.70497 3.50939 9.41699M5.16569 16.3449C5.35071 16.5713 5.47672 16.8445 5.52561 17.1404M5.16569 16.3449C5.35239 16.5713 5.47883 16.8438 5.52561 17.1404M5.16569 16.3449L5.16274 16.3416C5.15052 16.3268 5.13745 16.3114 5.12481 16.297M5.52561 17.1404L5.87327 19.2759C5.92654 19.6031 6.13849 19.8827 6.43917 20.0223L8.0671 20.7781C8.35817 20.9132 8.6964 20.9005 8.97646 20.7438L10.8902 19.6731M10.8902 19.6731C11.1553 19.5242 11.4512 19.4495 11.747 19.4491M10.8902 19.6731C10.9952 19.6134 11.1052 19.5657 11.2181 19.5299C11.3897 19.4756 11.5684 19.4488 11.747 19.4491M11.747 19.4491C11.9009 19.4495 12.0547 19.4698 12.2047 19.51C12.3442 19.5474 12.48 19.6018 12.6085 19.6731M11.747 19.4491C12.0442 19.4487 12.3417 19.5234 12.6085 19.6731M12.6085 19.6731L14.612 20.7576C14.8932 20.9099 15.2304 20.9185 15.519 20.7806L17.1391 20.0068C17.4387 19.8637 17.6478 19.5812 17.6971 19.2529L18.0085 17.178M18.0085 17.178C18.0553 16.8805 18.1796 16.6052 18.3642 16.3768M18.0085 17.178C18.0536 16.8798 18.1788 16.6049 18.3642 16.3768M18.3642 16.3768C18.5476 16.1508 18.7907 15.9707 19.074 15.8593M18.3642 16.3768C18.5471 16.1499 18.7895 15.9693 19.074 15.8593M19.074 15.8593L21.1369 15.0508C21.4449 14.9301 21.6733 14.6649 21.7469 14.3425L22.1326 12.6539C22.2061 12.3323 22.1162 11.9952 21.8924 11.7528L20.3973 10.134M20.3973 10.134C20.1883 9.91277 20.0424 9.64855 19.9716 9.36774M20.3973 10.134C20.2991 10.0307 20.2148 9.91771 20.1461 9.79797C20.0677 9.66199 20.0092 9.51726 19.9716 9.36774M19.9716 9.36774C19.9021 9.08893 19.9063 8.79349 19.9944 8.50752L20.641 6.43487C20.7414 6.11307 20.6729 5.76235 20.4588 5.50196L19.3464 4.14894C19.1401 3.89805 18.8249 3.76298 18.5009 3.7867L16.2776 3.94956M16.2776 3.94956C15.9733 3.97104 15.6741 3.91308 15.4078 3.78839M16.2776 3.94956C15.9729 3.97228 15.6741 3.91385 15.4078 3.78839M15.4078 3.78839C15.1397 3.6621 14.9046 3.4679 14.7297 3.22032M15.4078 3.78839C15.1393 3.66256 14.9037 3.46888 14.7297 3.22032M3.50939 9.41699L3.51024 9.41261M15.1359 11.0106C15.1359 12.8756 13.59 14.3874 11.6834 14.3874C9.77677 14.3874 8.23089 12.8756 8.23089 11.0106C8.23089 9.14566 9.77677 7.63386 11.6834 7.63386C13.59 7.63386 15.1359 9.14566 15.1359 11.0106Z" stroke="black" stroke-width="2"/>
</svg>
