<svg width="24" height="24" viewBox="0 0 24 24" fill="none" xmlns="http://www.w3.org/2000/svg">
<path d="M21.172 14.676H17.285C16.6051 14.676 15.9531 14.4059 15.4723 13.9252C14.9916 13.4444 14.7215 12.7924 14.7215 12.1125C14.7215 11.4326 14.9916 10.7806 15.4723 10.2998C15.9531 9.81909 16.6051 9.54901 17.285 9.54901H21.141" stroke="#F31260" stroke-width="1.5" stroke-miterlimit="10" stroke-linecap="round" stroke-linejoin="round"/>
<path d="M17.722 12.053H17.422" stroke="#F31260" stroke-width="1.5" stroke-miterlimit="10" stroke-linecap="round" stroke-linejoin="round"/>
<path d="M7.60602 8.14398H11.666" stroke="#F31260" stroke-width="1.5" stroke-miterlimit="10" stroke-linecap="round" stroke-linejoin="round"/>
<path d="M2.71399 12.253C2.71399 5.84799 5.03899 3.71399 12.014 3.71399C18.989 3.71399 21.314 5.84799 21.314 12.253C21.314 18.658 18.989 20.792 12.014 20.792C5.03899 20.792 2.71399 18.657 2.71399 12.253Z" stroke="#F31260" stroke-width="1.5" stroke-miterlimit="10" stroke-linecap="round" stroke-linejoin="round"/>
</svg>
